<svg viewBox="0 0 277 70" xmlns="http://www.w3.org/2000/svg"><g fill="#FFF"><path d="M40.96.571C27.996 1.786 11.494 9.357 5.82 22.714c-2.284 4.215-2.652 6.5-.884 7.215 1.62.642 2.578-1.358 1.989-2.572-.221-.357-.221-.786-.221-1.286C13.482 10 30.131 3.857 44.497 4.071c8.177.143 17.312 4 14.734 16.572-2.579 12.643-14.808 23.143-28.069 23.143-.589 0-1.105-.072-1.62-.072L41.329 9.357h-.147c-4.863.357-9.872 1.5-14.513 3.429v.071L10.093 61.714a7.13 7.13 0 0 1-1.326 2.429c-.59.714-1.326 1.214-2.358 1.571-.59.215-1.473.429-2.652.572-1.179.143-2.063.285-2.652.285L.147 69.5h26.964l1.031-2.929c-2.505-.285-4.126-.714-4.936-1.285-.368-.286-.663-.643-.81-1.072L29.1 44.857l.736 2.572c1.474.142 3.02.214 4.568.214 18.491 0 33.888-10.786 36.982-24C74.923 8.143 62.472-1.43 40.961.57z"/><path d="M82.437 30.429c8.84 0 16.06 6.5 16.06 14.571 0 11.071-10.756 20.357-23.132 20.357-8.84 0-16.06-6.5-16.06-14.571 0-11.143 11.934-20.357 23.132-20.357zm5.083 8.214c0-4-1.547-5.5-4.936-5.5-7.367 0-12.229 17-12.229 24.071 0 4 1.547 5.5 4.936 5.5 6.999-.071 12.23-15.357 12.23-24.071zm24.385 13.714c-1.326 4.572-2.21 7.572-2.21 8.429 0 .643.442 1 1.179 1 1.694 0 4.125-3.286 6.777-7.072L119.714 56c-2.357 4.429-6.41 9.357-12.303 9.357-5.01 0-7.44-3-7.44-6.928 0-4.572 1.252-7.858 3.167-14.072l5.526-18.643c.22-.785.663-2 .663-2.714 0-1.571-1.105-2.143-5.231-2.286l.737-2.5 17.386-.285-10.314 34.428z"/><path d="M161.853 31.071l-6.704 25.215c-.368 1.571-.81 3.5-.81 4.143 0 .571.147 1.285 1.031 1.285 2.947 0 6.704-6.5 7.441-8.714l2.505 1.286c-2.505 5.214-6.041 11.071-13.04 11.071-4.273 0-6.925-2.643-7.661-7.5h-.148c-3.094 4.429-6.04 7.5-11.64 7.5-6.556 0-13.629-3.786-13.629-13.643 0-10.857 10.904-21.285 21.586-21.285 4.788 0 7.072 2.357 8.25 5.642h.148l1.253-5h11.418zm-19.301 3c-7.072 0-11.493 15.715-11.493 22.5 0 3.572 1.253 5.072 3.831 5.072 6.851 0 12.45-14 12.45-21.429 0-4.143-1.694-6.143-4.788-6.143z"/><path d="M168.484 31.357l15.47-.286A278.013 278.013 0 0 0 182.26 38l.147.143c3.316-4 6.704-7.786 12.598-7.786 5.967 0 9.504 4.357 9.504 9.5 0 5.643-6.41 16.143-6.41 19.5 0 .714.295 1.429 1.4 1.429 2.063 0 5.967-6.143 6.778-7.215l2.283 1.572c-2.8 4.714-7.072 10.214-13.555 10.214-3.462 0-7.44-2-7.44-7.286 0-5.642 6.777-16.071 6.777-20.857 0-1.643-.884-2.643-2.947-2.643-4.567 0-10.903 9.215-14.734 22.858l-1.989 7.142H163.77l6.336-21.357c.81-2.928 2.062-6.214 2.062-7.214 0-1.286-.515-1.857-4.42-2l.737-2.643z"/><path d="M240.239 55c-4.273 6.143-8.694 10.286-17.018 10.286-8.251 0-16.208-4.643-16.208-14.429 0-12.786 14.66-20.5 24.238-20.5 7.146 0 11.198 3.143 11.198 7.286 0 10.428-14.808 11.643-23.06 11.786-.367 1.571-1.03 4.428-1.03 6.071 0 4.857 1.989 6.786 6.261 6.786 5.6 0 10.462-4.857 13.261-8.929L240.24 55zm-10.24-20.571c-5.379 0-9.651 9.357-10.24 13.142 6.188 0 12.892-3.642 12.892-10-.074-1.785-.737-3.142-2.653-3.142zM240.902 64.5l6.483-24.429c.368-1.357.663-2.571.663-3.785 0-1.643-1.18-2.215-4.273-2.357l.81-2.572 15.176-.286-1.842 8.786.148.143c2.873-5.929 7.956-9.643 12.671-9.643 3.389 0 6.188 2.357 6.188 5.5s-2.43 5.5-5.967 5.5c-3.094 0-4.494-1.571-4.494-3.928 0-1.786.59-2.5.737-2.858l-.147-.142c-4.126 1.428-9.578 10.214-12.966 20.857l-2.874 9.143h-10.313v.071zm23.583 1.125c-1.854 0-3.112-1.32-3.112-3.194 0-1.875 1.258-3.195 3.112-3.195 1.788 0 3.112 1.32 3.112 3.195 0 1.875-1.324 3.194-3.112 3.194zm0 1.042a4.167 4.167 0 0 0 4.172-4.167c0-2.292-1.92-4.167-4.172-4.167a4.167 4.167 0 1 0 0 8.334zm.993-3.82c.795-.07 1.258-.416 1.258-1.25 0-1.041-.596-1.389-1.788-1.389h-2.185v4.514h.927v-1.944h.729l.993 1.944h1.126l-1.06-1.875zm-1.788-.694v-1.25h1.06c.463 0 1.06-.07 1.06.555 0 .556-.332.695-.862.695h-1.258z"/></g></svg>